<?xml version="1.0" encoding="UTF-8" standalone="no"?>
<!-- Created with Inkscape (http://www.inkscape.org/) -->

<svg
   width="156.97528mm"
   height="152.63258mm"
   viewBox="0 0 156.97528 152.63258"
   version="1.1"
   id="svg1"
   xmlns:inkscape="http://www.inkscape.org/namespaces/inkscape"
   xmlns:sodipodi="http://sodipodi.sourceforge.net/DTD/sodipodi-0.dtd"
   xmlns="http://www.w3.org/2000/svg"
   xmlns:svg="http://www.w3.org/2000/svg">
  <sodipodi:namedview
     id="namedview1"
     pagecolor="#505050"
     bordercolor="#eeeeee"
     borderopacity="1"
     inkscape:showpageshadow="0"
     inkscape:pageopacity="0"
     inkscape:pagecheckerboard="0"
     inkscape:deskcolor="#505050"
     inkscape:document-units="mm" />
  <defs
     id="defs1" />
  <g
     inkscape:label="Layer 1"
     inkscape:groupmode="layer"
     id="layer1"
     transform="translate(0.25579796,-144.92523)">
    <g
       id="g118"
       inkscape:export-filename="small_cubes.svg"
       inkscape:export-xdpi="96"
       inkscape:export-ydpi="96">
      <path
         d="m 26.19821,235.92107 26.347263,15.2116 v 30.57637 L 26.19821,266.49744 Z"
         style="fill:#e2ff2a;fill-opacity:1;fill-rule:evenodd;stroke:none;stroke-linejoin:round"
         id="path105" />
      <path
         d="m -0.25579795,251.1943 v 30.57636 L 26.19821,266.49744 v -30.57637 z"
         style="fill:#353564;fill-rule:evenodd;stroke:none;stroke-linejoin:round"
         id="path106" />
      <path
         d="M -0.25579795,281.77066 26.091465,296.98226 52.545473,281.70904 26.19821,266.49744 Z"
         style="fill:#afafde;fill-rule:evenodd;stroke:none;stroke-linejoin:round"
         id="path107" />
      <path
         d="M -0.25579795,251.1943 26.091465,266.4059 52.545473,251.13267 26.19821,235.92107 Z"
         style="fill:#4d4d9f;fill-rule:evenodd;stroke:none;stroke-linejoin:round"
         id="path108" />
      <path
         d="m 26.091465,266.4059 v 30.57636 l 26.454008,-15.27322 v -30.57637 z"
         style="fill:#d7d7ff;fill-rule:evenodd;stroke:none;stroke-linejoin:round"
         id="path109" />
      <path
         d="M -0.25579795,251.1943 26.091465,266.4059 v 30.57636 l -26.34726295,-15.2116 z"
         style="fill:#8686bf;fill-rule:evenodd;stroke:none;stroke-linejoin:round"
         id="path110" />
      <path
         d="M -0.25579795,251.1943 26.091465,266.4059 v 30.57636 l -26.34726295,-15.2116 z"
         style="fill:#8686bf;fill-rule:evenodd;stroke:none;stroke-linejoin:round"
         id="path111" />
    </g>
    <g
       id="g149"
       inkscape:export-filename="small_cubes.svg"
       inkscape:export-xdpi="96"
       inkscape:export-ydpi="96"
       transform="translate(26.219364,-45.915863)">
      <path
         d="m 26.19821,235.92107 26.347263,15.2116 v 30.57637 L 26.19821,266.49744 Z"
         style="fill:#e2ff2a;fill-opacity:1;fill-rule:evenodd;stroke:none;stroke-linejoin:round"
         id="path143" />
      <path
         d="m -0.25579795,251.1943 v 30.57636 L 26.19821,266.49744 v -30.57637 z"
         style="fill:#353564;fill-rule:evenodd;stroke:none;stroke-linejoin:round"
         id="path144" />
      <path
         d="M -0.25579795,281.77066 26.091465,296.98226 52.545473,281.70904 26.19821,266.49744 Z"
         style="fill:#afafde;fill-rule:evenodd;stroke:none;stroke-linejoin:round"
         id="path145" />
      <path
         d="M -0.25579795,251.1943 26.091465,266.4059 52.545473,251.13267 26.19821,235.92107 Z"
         style="fill:#4d4d9f;fill-rule:evenodd;stroke:none;stroke-linejoin:round"
         id="path146" />
      <path
         d="m 26.091465,266.4059 v 30.57636 l 26.454008,-15.27322 v -30.57637 z"
         style="fill:#d7d7ff;fill-rule:evenodd;stroke:none;stroke-linejoin:round"
         id="path147" />
      <path
         d="M -0.25579795,251.1943 26.091465,266.4059 v 30.57636 l -26.34726295,-15.2116 z"
         style="fill:#8686bf;fill-rule:evenodd;stroke:none;stroke-linejoin:round"
         id="path148" />
      <path
         d="M -0.25579795,251.1943 26.091465,266.4059 v 30.57636 l -26.34726295,-15.2116 z"
         style="fill:#8686bf;fill-rule:evenodd;stroke:none;stroke-linejoin:round"
         id="path149" />
    </g>
    <g
       id="g156"
       inkscape:export-filename="medium_cubes.svg"
       inkscape:export-xdpi="96"
       inkscape:export-ydpi="96"
       transform="translate(52.502678,0.06394933)">
      <path
         d="m 26.19821,235.92107 26.347263,15.2116 v 30.57637 L 26.19821,266.49744 Z"
         style="fill:#e2ff2a;fill-opacity:1;fill-rule:evenodd;stroke:none;stroke-linejoin:round"
         id="path150" />
      <path
         d="m -0.25579795,251.1943 v 30.57636 L 26.19821,266.49744 v -30.57637 z"
         style="fill:#353564;fill-rule:evenodd;stroke:none;stroke-linejoin:round"
         id="path151" />
      <path
         d="M -0.25579795,281.77066 26.091465,296.98226 52.545473,281.70904 26.19821,266.49744 Z"
         style="fill:#afafde;fill-rule:evenodd;stroke:none;stroke-linejoin:round"
         id="path152" />
      <path
         d="M -0.25579795,251.1943 26.091465,266.4059 52.545473,251.13267 26.19821,235.92107 Z"
         style="fill:#4d4d9f;fill-rule:evenodd;stroke:none;stroke-linejoin:round"
         id="path153" />
      <path
         d="m 26.091465,266.4059 v 30.57636 l 26.454008,-15.27322 v -30.57637 z"
         style="fill:#d7d7ff;fill-rule:evenodd;stroke:none;stroke-linejoin:round"
         id="path154" />
      <path
         d="M -0.25579795,251.1943 26.091465,266.4059 v 30.57636 l -26.34726295,-15.2116 z"
         style="fill:#8686bf;fill-rule:evenodd;stroke:none;stroke-linejoin:round"
         id="path155" />
      <path
         d="M -0.25579795,251.1943 26.091465,266.4059 v 30.57636 l -26.34726295,-15.2116 z"
         style="fill:#8686bf;fill-rule:evenodd;stroke:none;stroke-linejoin:round"
         id="path156" />
    </g>
    <g
       id="g163"
       inkscape:export-filename="small_cubes.svg"
       inkscape:export-xdpi="96"
       inkscape:export-ydpi="96"
       transform="translate(78.530194,-45.276366)">
      <path
         d="m 26.19821,235.92107 26.347263,15.2116 v 30.57637 L 26.19821,266.49744 Z"
         style="fill:#e2ff2a;fill-opacity:1;fill-rule:evenodd;stroke:none;stroke-linejoin:round"
         id="path157" />
      <path
         d="m -0.25579795,251.1943 v 30.57636 L 26.19821,266.49744 v -30.57637 z"
         style="fill:#353564;fill-rule:evenodd;stroke:none;stroke-linejoin:round"
         id="path158" />
      <path
         d="M -0.25579795,281.77066 26.091465,296.98226 52.545473,281.70904 26.19821,266.49744 Z"
         style="fill:#afafde;fill-rule:evenodd;stroke:none;stroke-linejoin:round"
         id="path159" />
      <path
         d="M -0.25579795,251.1943 26.091465,266.4059 52.545473,251.13267 26.19821,235.92107 Z"
         style="fill:#4d4d9f;fill-rule:evenodd;stroke:none;stroke-linejoin:round"
         id="path160" />
      <path
         d="m 26.091465,266.4059 v 30.57636 l 26.454008,-15.27322 v -30.57637 z"
         style="fill:#d7d7ff;fill-rule:evenodd;stroke:none;stroke-linejoin:round"
         id="path161" />
      <path
         d="M -0.25579795,251.1943 26.091465,266.4059 v 30.57636 l -26.34726295,-15.2116 z"
         style="fill:#8686bf;fill-rule:evenodd;stroke:none;stroke-linejoin:round"
         id="path162" />
      <path
         d="M -0.25579795,251.1943 26.091465,266.4059 v 30.57636 l -26.34726295,-15.2116 z"
         style="fill:#8686bf;fill-rule:evenodd;stroke:none;stroke-linejoin:round"
         id="path163" />
    </g>
    <g
       id="g170"
       inkscape:export-filename="small_cubes.svg"
       inkscape:export-xdpi="96"
       inkscape:export-ydpi="96"
       transform="translate(52.220393,-90.995836)">
      <path
         d="m 26.19821,235.92107 26.347263,15.2116 v 30.57637 L 26.19821,266.49744 Z"
         style="fill:#e2ff2a;fill-opacity:1;fill-rule:evenodd;stroke:none;stroke-linejoin:round"
         id="path164" />
      <path
         d="m -0.25579795,251.1943 v 30.57636 L 26.19821,266.49744 v -30.57637 z"
         style="fill:#353564;fill-rule:evenodd;stroke:none;stroke-linejoin:round"
         id="path165" />
      <path
         d="M -0.25579795,281.77066 26.091465,296.98226 52.545473,281.70904 26.19821,266.49744 Z"
         style="fill:#afafde;fill-rule:evenodd;stroke:none;stroke-linejoin:round"
         id="path166" />
      <path
         d="M -0.25579795,251.1943 26.091465,266.4059 52.545473,251.13267 26.19821,235.92107 Z"
         style="fill:#4d4d9f;fill-rule:evenodd;stroke:none;stroke-linejoin:round"
         id="path167" />
      <path
         d="m 26.091465,266.4059 v 30.57636 l 26.454008,-15.27322 v -30.57637 z"
         style="fill:#d7d7ff;fill-rule:evenodd;stroke:none;stroke-linejoin:round"
         id="path168" />
      <path
         d="M -0.25579795,251.1943 26.091465,266.4059 v 30.57636 l -26.34726295,-15.2116 z"
         style="fill:#8686bf;fill-rule:evenodd;stroke:none;stroke-linejoin:round"
         id="path169" />
      <path
         d="M -0.25579795,251.1943 26.091465,266.4059 v 30.57636 l -26.34726295,-15.2116 z"
         style="fill:#8686bf;fill-rule:evenodd;stroke:none;stroke-linejoin:round"
         id="path170" />
    </g>
    <g
       id="g177"
       inkscape:export-filename="medium_cubes.svg"
       inkscape:export-xdpi="96"
       inkscape:export-ydpi="96"
       transform="translate(104.17401,0.57554624)">
      <path
         d="m 26.19821,235.92107 26.347263,15.2116 v 30.57637 L 26.19821,266.49744 Z"
         style="fill:#e2ff2a;fill-opacity:1;fill-rule:evenodd;stroke:none;stroke-linejoin:round"
         id="path171" />
      <path
         d="m -0.25579795,251.1943 v 30.57636 L 26.19821,266.49744 v -30.57637 z"
         style="fill:#353564;fill-rule:evenodd;stroke:none;stroke-linejoin:round"
         id="path172" />
      <path
         d="M -0.25579795,281.77066 26.091465,296.98226 52.545473,281.70904 26.19821,266.49744 Z"
         style="fill:#afafde;fill-rule:evenodd;stroke:none;stroke-linejoin:round"
         id="path173" />
      <path
         d="M -0.25579795,251.1943 26.091465,266.4059 52.545473,251.13267 26.19821,235.92107 Z"
         style="fill:#4d4d9f;fill-rule:evenodd;stroke:none;stroke-linejoin:round"
         id="path174" />
      <path
         d="m 26.091465,266.4059 v 30.57636 l 26.454008,-15.27322 v -30.57637 z"
         style="fill:#d7d7ff;fill-rule:evenodd;stroke:none;stroke-linejoin:round"
         id="path175" />
      <path
         d="M -0.25579795,251.1943 26.091465,266.4059 v 30.57636 l -26.34726295,-15.2116 z"
         style="fill:#8686bf;fill-rule:evenodd;stroke:none;stroke-linejoin:round"
         id="path176" />
      <path
         d="M -0.25579795,251.1943 26.091465,266.4059 v 30.57636 l -26.34726295,-15.2116 z"
         style="fill:#8686bf;fill-rule:evenodd;stroke:none;stroke-linejoin:round"
         id="path177" />
    </g>
  </g>
</svg>
